<svg id="visual" viewBox="0 0 900 600" width="900" height="600" xmlns="http://www.w3.org/2000/svg" xmlns:xlink="http://www.w3.org/1999/xlink" version="1.1"><rect x="0" y="0" width="900" height="600" fill="#031728"></rect><path d="M0 238L30 238.2C60 238.3 120 238.7 180 249.7C240 260.7 300 282.3 360 286.5C420 290.7 480 277.3 540 266C600 254.7 660 245.3 720 253.8C780 262.3 840 288.7 870 301.8L900 315L900 0L870 0C840 0 780 0 720 0C660 0 600 0 540 0C480 0 420 0 360 0C300 0 240 0 180 0C120 0 60 0 30 0L0 0Z" fill="#2538a3"></path><path d="M0 199L30 196.3C60 193.7 120 188.3 180 193.7C240 199 300 215 360 226.7C420 238.3 480 245.7 540 237.7C600 229.7 660 206.3 720 209.2C780 212 840 241 870 255.5L900 270L900 0L870 0C840 0 780 0 720 0C660 0 600 0 540 0C480 0 420 0 360 0C300 0 240 0 180 0C120 0 60 0 30 0L0 0Z" fill="#1f3091"></path><path d="M0 219L30 218.7C60 218.3 120 217.7 180 205.8C240 194 300 171 360 165C420 159 480 170 540 175.7C600 181.3 660 181.7 720 182.5C780 183.3 840 184.7 870 185.3L900 186L900 0L870 0C840 0 780 0 720 0C660 0 600 0 540 0C480 0 420 0 360 0C300 0 240 0 180 0C120 0 60 0 30 0L0 0Z" fill="#19287f"></path><path d="M0 170L30 168.5C60 167 120 164 180 156.3C240 148.7 300 136.3 360 140.5C420 144.7 480 165.3 540 173.8C600 182.3 660 178.7 720 172.7C780 166.7 840 158.3 870 154.2L900 150L900 0L870 0C840 0 780 0 720 0C660 0 600 0 540 0C480 0 420 0 360 0C300 0 240 0 180 0C120 0 60 0 30 0L0 0Z" fill="#13216d"></path><path d="M0 87L30 90.8C60 94.7 120 102.3 180 113.2C240 124 300 138 360 136.3C420 134.7 480 117.3 540 116.8C600 116.3 660 132.7 720 132.8C780 133 840 117 870 109L900 101L900 0L870 0C840 0 780 0 720 0C660 0 600 0 540 0C480 0 420 0 360 0C300 0 240 0 180 0C120 0 60 0 30 0L0 0Z" fill="#0d1a5c"></path><path d="M0 91L30 87.2C60 83.3 120 75.7 180 76.3C240 77 300 86 360 89C420 92 480 89 540 88.5C600 88 660 90 720 88.5C780 87 840 82 870 79.5L900 77L900 0L870 0C840 0 780 0 720 0C660 0 600 0 540 0C480 0 420 0 360 0C300 0 240 0 180 0C120 0 60 0 30 0L0 0Z" fill="#07124b"></path><path d="M0 56L30 50.3C60 44.7 120 33.3 180 34.2C240 35 300 48 360 53.5C420 59 480 57 540 55.2C600 53.3 660 51.7 720 45.3C780 39 840 28 870 22.5L900 17L900 0L870 0C840 0 780 0 720 0C660 0 600 0 540 0C480 0 420 0 360 0C300 0 240 0 180 0C120 0 60 0 30 0L0 0Z" fill="#05093b"></path></svg>