<svg id="visual" viewBox="0 0 960 540" width="960" height="540" xmlns="http://www.w3.org/2000/svg" xmlns:xlink="http://www.w3.org/1999/xlink" version="1.1"><rect x="0" y="0" width="960" height="540" fill="#031728"></rect><path d="M0 370L32 349.5C64 329 128 288 192 276.3C256 264.7 320 282.3 384 278.2C448 274 512 248 576 254.3C640 260.7 704 299.3 768 317.2C832 335 896 332 928 330.5L960 329L960 541L928 541C896 541 832 541 768 541C704 541 640 541 576 541C512 541 448 541 384 541C320 541 256 541 192 541C128 541 64 541 32 541L0 541Z" fill="#2538a3"></path><path d="M0 244L32 253.7C64 263.3 128 282.7 192 307C256 331.3 320 360.7 384 353.8C448 347 512 304 576 294C640 284 704 307 768 320.3C832 333.7 896 337.3 928 339.2L960 341L960 541L928 541C896 541 832 541 768 541C704 541 640 541 576 541C512 541 448 541 384 541C320 541 256 541 192 541C128 541 64 541 32 541L0 541Z" fill="#1f3091"></path><path d="M0 433L32 430.3C64 427.7 128 422.3 192 421.8C256 421.3 320 425.7 384 427.5C448 429.3 512 428.7 576 426.8C640 425 704 422 768 399.8C832 377.7 896 336.3 928 315.7L960 295L960 541L928 541C896 541 832 541 768 541C704 541 640 541 576 541C512 541 448 541 384 541C320 541 256 541 192 541C128 541 64 541 32 541L0 541Z" fill="#19287f"></path><path d="M0 407L32 409.5C64 412 128 417 192 417.8C256 418.7 320 415.3 384 413.8C448 412.3 512 412.7 576 402.5C640 392.3 704 371.7 768 373.3C832 375 896 399 928 411L960 423L960 541L928 541C896 541 832 541 768 541C704 541 640 541 576 541C512 541 448 541 384 541C320 541 256 541 192 541C128 541 64 541 32 541L0 541Z" fill="#13216d"></path><path d="M0 428L32 423.7C64 419.3 128 410.7 192 416.8C256 423 320 444 384 446.8C448 449.7 512 434.3 576 436.3C640 438.3 704 457.7 768 463.8C832 470 896 463 928 459.5L960 456L960 541L928 541C896 541 832 541 768 541C704 541 640 541 576 541C512 541 448 541 384 541C320 541 256 541 192 541C128 541 64 541 32 541L0 541Z" fill="#0d1a5c"></path><path d="M0 423L32 423.7C64 424.3 128 425.7 192 433.2C256 440.7 320 454.3 384 462.7C448 471 512 474 576 470.7C640 467.3 704 457.7 768 450.7C832 443.7 896 439.3 928 437.2L960 435L960 541L928 541C896 541 832 541 768 541C704 541 640 541 576 541C512 541 448 541 384 541C320 541 256 541 192 541C128 541 64 541 32 541L0 541Z" fill="#07124b"></path><path d="M0 453L32 463.5C64 474 128 495 192 505.5C256 516 320 516 384 506.5C448 497 512 478 576 470.2C640 462.3 704 465.7 768 473C832 480.3 896 491.7 928 497.3L960 503L960 541L928 541C896 541 832 541 768 541C704 541 640 541 576 541C512 541 448 541 384 541C320 541 256 541 192 541C128 541 64 541 32 541L0 541Z" fill="#05093b"></path></svg>